<?xml version="1.0" encoding="iso-8859-1"?>
<!-- Generator: Adobe Illustrator 16.0.0, SVG Export Plug-In . SVG Version: 6.00 Build 0)  -->
<!DOCTYPE svg PUBLIC "-//W3C//DTD SVG 1.1//EN" "http://www.w3.org/Graphics/SVG/1.1/DTD/svg11.dtd">
<svg version="1.1" id="Capa_1" xmlns="http://www.w3.org/2000/svg" xmlns:xlink="http://www.w3.org/1999/xlink" x="0px" y="0px"
	 width="165.235px" height="165.234px" viewBox="0 0 165.235 165.234" style="enable-background:new 0 0 165.235 165.234;"
	 xml:space="preserve">
<g>
	<path d="M165.235,136.76c0,2.581-2.095,4.676-4.676,4.676H4.676c-2.582,0-4.676-2.095-4.676-4.676c0-2.582,2.094-4.677,4.676-4.677
		h155.883C163.14,132.083,165.235,134.178,165.235,136.76z M165.235,61.668V117.7c0,2.582-2.095,4.677-4.676,4.677H4.676
		C2.094,122.377,0,120.282,0,117.7V61.668c0-1.522,0.743-2.953,1.982-3.824c1.242-0.871,2.837-1.09,4.277-0.572l35.299,12.689
		l37.479-44.572c1.778-2.119,5.382-2.119,7.161,0l37.479,44.572l35.299-12.689c1.449-0.518,3.033-0.299,4.275,0.572
		C164.499,58.715,165.235,60.146,165.235,61.668z M155.882,68.317L123.78,79.862c-1.839,0.67-3.909,0.109-5.163-1.395L82.618,35.655
		L46.634,78.468c-1.267,1.504-3.337,2.058-5.164,1.395L9.365,68.317v44.712h146.529L155.882,68.317L155.882,68.317z"/>
</g>
<g>
</g>
<g>
</g>
<g>
</g>
<g>
</g>
<g>
</g>
<g>
</g>
<g>
</g>
<g>
</g>
<g>
</g>
<g>
</g>
<g>
</g>
<g>
</g>
<g>
</g>
<g>
</g>
<g>
</g>
</svg>
