<svg id="Capa_1" enable-background="new 0 0 512 512" height="512" viewBox="0 0 512 512" width="512" xmlns="http://www.w3.org/2000/svg"><path d="m464.626 107.556-21.551 21.551c25.306 37.14 38.925 80.967 38.925 126.893 0 60.367-23.508 117.12-66.194 159.806-42.685 42.686-99.438 66.194-159.806 66.194l-10.667 19.333 10.667 10.667c68.38 0 132.667-26.629 181.02-74.981 48.351-48.352 74.98-112.639 74.98-181.019 0-53.975-16.604-105.393-47.374-148.444z" fill="#fdae02"/><path d="m256 30c45.926 0 89.753 13.62 126.893 38.925l21.551-21.551c-43.051-30.77-94.468-47.374-148.444-47.374l-10.667 21.333z" fill="#fdae02"/><path d="m129.107 443.075-21.551 21.551c43.051 30.77 94.469 47.374 148.444 47.374v-30c-45.926 0-89.753-13.619-126.893-38.925z" fill="#fdcb02"/><path d="m0 256c0 53.975 16.604 105.393 47.374 148.444l21.551-21.551c-25.305-37.14-38.925-80.967-38.925-126.893 0-60.367 23.508-117.12 66.194-159.806s99.439-66.194 159.806-66.194v-30c-68.38 0-132.667 26.629-181.019 74.981s-74.981 112.639-74.981 181.019z" fill="#fdcb02"/><path d="m438.144 255.211-64.127-131.544-75.35 36.333-42.565 95.211 95.898 22.122z" fill="#afd7fd"/><path d="m256.102 255.211h-.102l-10.667 64.789 10.667 105.89 182.144-170.679z" fill="#72bafd"/><path d="m256 255.098.102.113 117.915-131.544h-118.017l-10.667 57.666z" fill="#72bafd"/><path d="m137.984 123.667-64.127 131.544 96.81 22.122 85.333-22.122v-.113l-42.667-95.098z" fill="#c4e2fe"/><g fill="#9ccefd"><path d="m73.857 255.211 182.143 170.679v-170.679z"/><path d="m256 123.667h-118.016l118.016 131.431z"/></g></svg>