<svg xmlns="http://www.w3.org/2000/svg" width="48" height="48" viewBox="0 0 48 48"> <g id="Group_380" data-name="Group 380" transform="translate(-697.976 -63.638)"> <path id="Path_3944" data-name="Path 3944" d="M832.735,100.722c.358-.448,9.911-11.195,11.418-19.869a2.122,2.122,0,0,0-.524-2.117c-.751-.589-1.88-.909-4.569-.909l-5.037,0a.5.5,0,0,1-.4-.495l-.012-5.973a.674.674,0,0,1,.662-.684h0a.673.673,0,0,1,.665.682s.009,3.243.01,4.395a.459.459,0,0,0,.31.439c1.606.44,9.724.118,9.6-1.4,0-.006,0-.011,0-.017a12.342,12.342,0,0,0-12.129-11.14,11.936,11.936,0,0,0-5.5,1.341A12.538,12.538,0,0,0,820.513,76.2c.052,3.464,2.273,9.622,3.632,10.536.626.422,1.452.266,5.141.266,1.673,0,3.23.006,4,.009.08.015.5.114.5.508h0l.008,4.541a.664.664,0,1,1-1.327,0s.033-1.822.033-2.5a.6.6,0,0,0-.435-.632c-1.469-.672-6.241-.267-6.509.475-.1.285.431,1.389,1.252,2.8a98.316,98.316,0,0,0,5.857,8.455C832.687,100.682,832.712,100.7,832.735,100.722Z" transform="translate(-110.707)" fill="#f46e0f"></path> <g id="Group_379" data-name="Group 379" transform="translate(697.976 103.97)"> <path id="Path_3945" data-name="Path 3945" d="M701.453,488.435l-.365-.156c-.635-.275-.781-.407-.781-.709,0-.262.2-.432.5-.432s.525.088.77.527l.1.181,1.468-.943-.091-.161a2.359,2.359,0,0,0-2.247-1.268,2.141,2.141,0,0,0-2.335,2.126,2.489,2.489,0,0,0,1.872,2.383l.364.156c.717.314.948.444.948.792,0,.314-.32.526-.8.526a1.393,1.393,0,0,1-1.275-.795l-.1-.162-1.515.877.083.164a3.027,3.027,0,0,0,2.837,1.6c1.59,0,2.617-.876,2.617-2.231C703.513,489.585,702.725,488.98,701.453,488.435Z" transform="translate(-697.976 -485.475)" fill="#f46e0f"></path> <path id="Path_3946" data-name="Path 3946" d="M777.1,488.732c-.069.19-.14.422-.2.637a5.9,5.9,0,0,0-.254-.655L775.2,485.69h-.393l-1.42,3.024a5.863,5.863,0,0,0-.254.654c-.062-.215-.133-.447-.2-.637l-1.081-2.979h-1.96l2.763,7.553h.4l1.714-3.537c.077-.162.158-.364.228-.549.068.184.147.386.224.548l1.65,3.537h.407L780,485.753h-1.835Z" transform="translate(-762.949 -485.669)" fill="#f46e0f"></path> <rect id="Rectangle_199" data-name="Rectangle 199" width="1.852" height="7.49" transform="translate(18.949 0.083)" fill="#f46e0f"></rect> <path id="Path_3947" data-name="Path 3947" d="M946.359,490.532h1.713v.721a3.536,3.536,0,0,1-1.194.194,2.014,2.014,0,0,1-2.154-2.144,1.943,1.943,0,0,1,1.925-2.123,1.775,1.775,0,0,1,1.447.588l.137.141,1.262-1.249-.121-.138a3.4,3.4,0,0,0-2.726-1.048,3.7,3.7,0,0,0-3.818,3.829,3.777,3.777,0,0,0,4.048,3.839,4.766,4.766,0,0,0,2.849-.869l.071-.059v-3.357h-3.439Z" transform="translate(-919.596 -485.475)" fill="#f46e0f"></path> <path id="Path_3948" data-name="Path 3948" d="M1043.587,490.532h1.713v.721a3.532,3.532,0,0,1-1.194.194,2.014,2.014,0,0,1-2.155-2.144,1.943,1.943,0,0,1,1.925-2.123,1.775,1.775,0,0,1,1.447.588l.137.141,1.262-1.249-.121-.138a3.4,3.4,0,0,0-2.726-1.048,3.7,3.7,0,0,0-3.818,3.829,3.776,3.776,0,0,0,4.048,3.839,4.765,4.765,0,0,0,2.849-.869l.071-.059v-3.357h-3.439Z" transform="translate(-1007.6 -485.475)" fill="#f46e0f"></path> <path id="Path_3949" data-name="Path 3949" d="M1131.876,486.338l-1.255,2.39a8.528,8.528,0,0,0-.386.88,9.106,9.106,0,0,0-.4-.882l-1.308-2.388h-2.065l2.831,5.091v2.4h1.862v-2.506l2.657-4.984Z" transform="translate(-1085.812 -486.255)" fill="#f46e0f"></path> </g> </g> </svg>