<svg xmlns="http://www.w3.org/2000/svg" width="31" height="23" viewBox="0 0 31 23"> <g id="Icon_feather-youtube" data-name="Icon feather-youtube" transform="translate(-1 -5.5)"> <path id="Path_14235" data-name="Path 14235" d="M30.871,9.444A3.884,3.884,0,0,0,28.226,6.6C25.88,6,16.5,6,16.5,6S7.118,6,4.772,6.655A3.884,3.884,0,0,0,2.127,9.5,43.021,43.021,0,0,0,1.5,17.028a43.021,43.021,0,0,0,.627,7.585,3.875,3.875,0,0,0,2.645,2.732C7.118,28,16.5,28,16.5,28s9.381,0,11.727-.655A3.884,3.884,0,0,0,30.871,24.5a43.02,43.02,0,0,0,.627-7.471,43.02,43.02,0,0,0-.627-7.585Z" transform="translate(0 0)" fill="none" stroke="#000" stroke-linecap="round" stroke-linejoin="round" stroke-width="1"></path> <path id="Path_14236" data-name="Path 14236" d="M14.625,22.53l8.625-4.905-8.625-4.9Z" transform="translate(-1.616 -0.598)" stroke="#000" stroke-linecap="round" stroke-linejoin="round" stroke-width="1"></path> </g> </svg>