<?xml version="1.0" encoding="iso-8859-1"?>
<!-- Generator: Adobe Illustrator 19.0.0, SVG Export Plug-In . SVG Version: 6.00 Build 0)  -->
<svg version="1.1" id="Capa_1" xmlns="http://www.w3.org/2000/svg" xmlns:xlink="http://www.w3.org/1999/xlink" x="0px" y="0px"
	 viewBox="0 0 512.001 512.001" style="enable-background:new 0 0 512.001 512.001;" xml:space="preserve">
<path style="fill:#10C4C4;" d="M344.79,123.424c-1.002-1.583-2.745-2.543-4.618-2.543H256h-84.172c-1.874,0-3.616,0.96-4.618,2.543
	l-39.808,62.892c-1.237,1.955-1.11,4.477,0.318,6.297L251.7,350.652c2.188,2.79,6.413,2.79,8.601,0l123.98-158.039
	c1.428-1.82,1.555-4.342,0.318-6.297L344.79,123.424z"/>
<path style="fill:#21D8DE;" d="M167.21,123.424l-0.68,1.075l-39.128,61.817c-0.63,0.996-0.902,2.138-0.833,3.261h258.862
	c0.07-1.122-0.202-2.265-0.833-3.261l-39.128-61.817l-0.68-1.075c-1.002-1.583-2.745-2.543-4.618-2.543H256h-84.172
	C169.955,120.881,168.212,121.841,167.21,123.424z"/>
<g>
	<polygon style="fill:#25F2F2;" points="255.663,120.881 211.905,189.573 256,189.573 299.422,189.573 	"/>
	<path style="fill:#25F2F2;" d="M299.422,189.573l86.009,0.004l0,0c0.034-0.552-0.016-1.108-0.149-1.65
		c-0.003-0.01-0.003-0.02-0.005-0.029c-0.061-0.243-0.146-0.48-0.241-0.715c-0.013-0.032-0.02-0.066-0.034-0.098
		c-0.113-0.263-0.247-0.52-0.404-0.768l-8.064-12.741l-25.927-40.961l-5.817-9.191c-0.127-0.201-0.266-0.391-0.416-0.571
		c-0.017-0.02-0.037-0.037-0.054-0.057c-0.136-0.159-0.278-0.312-0.43-0.452c-0.003-0.003-0.007-0.006-0.01-0.009
		c-0.339-0.312-0.714-0.58-1.117-0.797l0,0L299.422,189.573z"/>
</g>
<path style="fill:#21D8DE;" d="M385.431,189.577C385.431,189.577,385.431,189.576,385.431,189.577
	c0.034-0.552-0.016-1.109-0.149-1.65c0-0.001,0-0.001,0-0.002c-0.002-0.009-0.003-0.019-0.005-0.028
	c-0.061-0.243-0.146-0.48-0.241-0.715c-0.013-0.032-0.02-0.066-0.033-0.098c-0.113-0.263-0.247-0.52-0.404-0.768l-7.282-11.505
	l-8.9-14.061l-17.809-28.136l-5.817-9.191c-0.127-0.201-0.266-0.391-0.416-0.571c-0.014-0.017-0.029-0.031-0.044-0.047
	c-0.003-0.004-0.007-0.007-0.011-0.012c-0.136-0.158-0.277-0.311-0.429-0.451c-0.001-0.001-0.003-0.002-0.004-0.003
	c-0.003-0.003-0.006-0.005-0.009-0.007c-0.338-0.311-0.713-0.579-1.115-0.795l0,0l0,0l-20.814,32.674l19.228,30.378
	c0.961,1.519,1.088,3.377,0.432,4.985L385.431,189.577z"/>
<path style="fill:#25F2F2;" d="M169.237,121.538c-0.814,0.438-1.517,1.08-2.027,1.886l-13.982,22.09l-25.826,40.802
	c-0.63,0.996-0.902,2.138-0.833,3.261l86.009-0.004L169.237,121.538z"/>
<g>
	<path style="fill:#21D8DE;" d="M212.578,189.573h-86.009c0.066,1.082,0.45,2.146,1.151,3.04L251.7,350.652
		c0.887,1.131,2.11,1.795,3.395,2.009L212.578,189.573z"/>
	<path style="fill:#21D8DE;" d="M384.28,192.613c0.176-0.224,0.331-0.46,0.468-0.703c0.117-0.21,0.214-0.429,0.301-0.65
		c0.013-0.033,0.032-0.064,0.045-0.097c0.191-0.51,0.303-1.043,0.337-1.581c0-0.002,0.001-0.004,0.001-0.006l-86.346-0.004
		l-42.187,163.09l0,0c0.601-0.099,1.186-0.301,1.732-0.599c0.05-0.027,0.101-0.053,0.15-0.082c0.089-0.052,0.175-0.11,0.261-0.168
		c0.078-0.052,0.155-0.106,0.231-0.162c0.071-0.053,0.14-0.107,0.209-0.164c0.092-0.077,0.182-0.158,0.27-0.242
		c0.051-0.049,0.104-0.095,0.153-0.146c0.137-0.141,0.271-0.288,0.396-0.448l78.589-100.179L384.28,192.613z"/>
</g>
<g>
	<path style="fill:#10C4C4;" d="M384.28,192.613c0.176-0.224,0.331-0.46,0.468-0.703c0.116-0.208,0.211-0.424,0.298-0.643
		c0.004-0.01,0.009-0.019,0.013-0.029c0.012-0.025,0.025-0.049,0.035-0.075c0.19-0.509,0.302-1.041,0.336-1.578
		c0-0.003,0.001-0.006,0.001-0.009l-43.823-0.002c-0.188,0.462-0.432,0.906-0.75,1.312l-62.83,80.091l-21.13,81.685l0,0
		c0.601-0.099,1.186-0.301,1.732-0.599c0.035-0.019,0.07-0.038,0.105-0.057c0.015-0.009,0.03-0.016,0.045-0.024
		c0.088-0.052,0.174-0.11,0.26-0.167c0.078-0.053,0.156-0.106,0.232-0.163c0.07-0.053,0.14-0.107,0.208-0.164
		c0.035-0.029,0.067-0.061,0.101-0.091c0.057-0.05,0.114-0.099,0.17-0.152c0.051-0.048,0.104-0.095,0.153-0.146
		c0.137-0.141,0.271-0.288,0.395-0.448l78.589-100.179L384.28,192.613z"/>
	<path style="fill:#10C4C4;" d="M321.948,154.212l20.806-32.66c-0.385-0.207-0.785-0.385-1.211-0.496
		c-0.443-0.115-0.903-0.175-1.371-0.175h-39.45c0.237,0.251,0.458,0.519,0.647,0.816L321.948,154.212z"/>
</g>
<g>
	<path style="fill:#0BB2AD;" d="M252.347,351.333c-0.228-0.206-0.448-0.426-0.645-0.678
		C251.9,350.907,252.119,351.128,252.347,351.333z"/>
	<path style="fill:#0BB2AD;" d="M253.083,351.883c-0.178-0.112-0.35-0.234-0.517-0.368
		C252.733,351.649,252.905,351.772,253.083,351.883z"/>
	<path style="fill:#0BB2AD;" d="M253.934,352.317c-0.198-0.08-0.394-0.165-0.583-0.27
		C253.54,352.151,253.735,352.239,253.934,352.317z"/>
	<path style="fill:#0BB2AD;" d="M254.816,352.589c-0.065-0.014-0.128-0.033-0.193-0.05
		C254.687,352.555,254.751,352.575,254.816,352.589z"/>
	<path style="fill:#0BB2AD;" d="M233.612,327.595l0.787,1.004L233.612,327.595z"/>
	<path style="fill:#0BB2AD;" d="M244.832,313.293l10.255,39.337c0.602,0.095,1.217,0.102,1.82-0.001l21.121-81.651L244.832,313.293z
		"/>
</g>
<g>
	<path style="fill:#21D8DE;" d="M255.095,352.661l-0.008-0.031c-0.09-0.014-0.181-0.022-0.271-0.041
		C254.91,352.61,255,352.645,255.095,352.661z"/>
	<path style="fill:#21D8DE;" d="M254.623,352.539c-0.234-0.058-0.463-0.132-0.689-0.222
		C254.159,352.409,254.389,352.479,254.623,352.539z"/>
	<polygon style="fill:#21D8DE;" points="234.399,328.599 251.7,350.652 251.702,350.655 251.7,350.652 	"/>
	<path style="fill:#21D8DE;" d="M252.566,351.515c-0.074-0.059-0.148-0.118-0.219-0.182
		C252.418,351.397,252.492,351.455,252.566,351.515z"/>
	<path style="fill:#21D8DE;" d="M253.35,352.048c-0.091-0.05-0.178-0.109-0.267-0.165
		C253.172,351.939,253.259,351.997,253.35,352.048z"/>
</g>
<path style="fill:#10C4C4;" d="M233.612,327.595l0.787,1.004l17.3,22.053c0.001,0.001,0.002,0.002,0.002,0.003
	c0.198,0.252,0.417,0.473,0.645,0.678c0.071,0.064,0.145,0.122,0.219,0.182c0.166,0.135,0.339,0.256,0.517,0.368
	c0.089,0.056,0.176,0.115,0.267,0.165c0.189,0.104,0.385,0.189,0.583,0.27c0.226,0.089,0.455,0.164,0.689,0.222
	c0.064,0.017,0.128,0.036,0.193,0.05c0.09,0.019,0.181,0.027,0.271,0.041l-10.255-39.337L233.612,327.595z"/>
<g>
	<path style="fill:#FFB125;" d="M39.097,110.51c12.916-14.092,26.452-26.773,41.355-38.546c1.753-1.384,4.276,0.273,3.689,2.428
		c-8.353,30.703-22.948,61.045-45.448,83.601C37.683,142.202,37.668,126.279,39.097,110.51z"/>
	<path style="fill:#FFB125;" d="M38.695,158.005c-12.99-15.676-24.152-31.883-34.211-49.381c-1.15-2.001-4.209-1.287-4.326,1.018
		c-1.814,35.843,11.881,77.782,45.246,94.697C42.079,189.096,39.683,173.585,38.695,158.005z"/>
	<path style="fill:#FFB125;" d="M45.402,204.327c8.175-16.82,17.326-32.47,28.051-47.64c1.273-1.8,4.126-0.975,4.219,1.227
		c1.307,30.962-4.006,63.692-18.842,90.871C53.332,234.319,48.692,219.46,45.402,204.327z"/>
	<path style="fill:#FFB125;" d="M58.834,248.797c-16.867-10.84-32.276-22.694-47.056-36.007c-1.705-1.536-4.38,0.068-3.802,2.288
		c8.904,34.236,34.367,69.369,70.62,75.574C71.06,277.194,64.309,263.227,58.834,248.797z"/>
	<path style="fill:#FFB125;" d="M78.59,290.642c2.955-18.351,7.181-35.856,13.064-53.357c0.7-2.082,3.655-2.122,4.388-0.052
		c10.289,29.048,14.457,61.819,8.249,91.936C94.856,316.957,86.126,304.122,78.59,290.642z"/>
	<path style="fill:#FFB125;" d="M104.299,329.179c-19.228-5.447-37.392-12.26-55.383-20.61c-2.078-0.965-4.161,1.347-2.963,3.301
		c18.497,30.164,53.127,56.281,89.602,51.78C124.358,352.923,113.777,341.464,104.299,329.179z"/>
	<path style="fill:#FFB125;" d="M135.546,363.642c-2.624-18.489-3.738-36.521-3.223-55.057c0.061-2.197,2.88-3.098,4.184-1.329
		c18.423,24.977,32.166,55.317,35.455,86.077C159.152,384.331,146.852,374.49,135.546,363.642z"/>
	<path style="fill:#FFB125;" d="M472.903,110.51c-12.916-14.092-26.452-26.773-41.355-38.546c-1.753-1.384-4.276,0.273-3.689,2.428
		c8.353,30.703,22.948,61.045,45.448,83.601C474.317,142.202,474.332,126.279,472.903,110.51z"/>
	<path style="fill:#FFB125;" d="M473.305,158.005c12.99-15.676,24.152-31.883,34.211-49.381c1.15-2.001,4.209-1.287,4.326,1.018
		c1.814,35.843-11.881,77.782-45.246,94.697C469.921,189.096,472.317,173.585,473.305,158.005z"/>
	<path style="fill:#FFB125;" d="M466.598,204.327c-8.175-16.82-17.326-32.47-28.051-47.64c-1.273-1.8-4.126-0.975-4.219,1.227
		c-1.307,30.962,4.006,63.692,18.842,90.871C458.668,234.319,463.308,219.46,466.598,204.327z"/>
	<path style="fill:#FFB125;" d="M453.166,248.797c16.867-10.84,32.276-22.694,47.056-36.007c1.705-1.536,4.38,0.068,3.802,2.288
		c-8.904,34.236-34.367,69.369-70.62,75.574C440.94,277.194,447.691,263.227,453.166,248.797z"/>
	<path style="fill:#FFB125;" d="M433.41,290.642c-2.955-18.351-7.181-35.856-13.064-53.357c-0.7-2.082-3.655-2.122-4.388-0.052
		c-10.289,29.048-14.457,61.819-8.249,91.936C417.144,316.957,425.874,304.122,433.41,290.642z"/>
	<path style="fill:#FFB125;" d="M407.701,329.179c19.228-5.447,37.392-12.26,55.383-20.61c2.079-0.965,4.161,1.347,2.964,3.301
		c-18.497,30.164-53.127,56.281-89.602,51.78C387.642,352.923,398.223,341.464,407.701,329.179z"/>
	<path style="fill:#FFB125;" d="M376.454,363.642c2.624-18.489,3.738-36.521,3.223-55.057c-0.061-2.197-2.88-3.098-4.184-1.329
		c-18.423,24.977-32.166,55.317-35.455,86.077C352.848,384.331,365.148,374.49,376.454,363.642z"/>
</g>
<path style="fill:#FD9727;" d="M480.34,111.142c-0.003-0.152,0-0.303-0.011-0.456c-1.766-23.507-6.099-47.072-12.879-70.039
	c-1.208-4.093-5.508-6.432-9.598-5.223c-4.093,1.208-6.432,5.505-5.224,9.598c6.406,21.699,10.515,43.949,12.231,66.143
	c0.004,0.166,0.005,0.332,0.02,0.5c1.302,14.349,1.432,29.898,0.388,46.217c-0.001,0.006-0.002,0.013-0.002,0.019
	c-0.898,14.169-3.097,29.341-6.534,45.095c0,0.001-0.001,0.003-0.001,0.004c-2.992,13.763-7.394,28.327-13.08,43.288
	c-0.002,0.005-0.003,0.009-0.005,0.014v0.001c-4.985,13.138-11.461,26.849-19.247,40.753l0,0
	c-6.865,12.279-15.286,24.901-25.032,37.516c-0.002,0.002-0.003,0.005-0.005,0.007c-0.002,0.002-0.004,0.004-0.005,0.006
	c-8.638,11.195-18.876,22.484-30.431,33.556l-0.001,0.001c-10.297,9.88-22.225,19.602-35.455,28.899
	c-0.048,0.034-0.09,0.073-0.137,0.107c-0.045,0.033-0.093,0.061-0.137,0.095c-22.256,17.1-33.534,21.365-45.474,25.878
	c-9.457,3.576-19.111,7.235-33.719,16.973c-14.608-9.738-24.262-13.397-33.719-16.973c-11.94-4.514-23.218-8.778-45.474-25.878
	c-0.044-0.034-0.092-0.061-0.137-0.094c-0.047-0.035-0.09-0.074-0.138-0.108c-13.23-9.296-25.158-19.019-35.455-28.899l-0.001-0.001
	c-11.555-11.071-21.793-22.361-30.431-33.556c-0.002-0.002-0.004-0.004-0.005-0.006c-0.002-0.002-0.003-0.005-0.005-0.007
	c-9.746-12.615-18.168-25.237-25.032-37.516l0,0c-7.787-13.904-14.262-27.615-19.247-40.753c0-0.001,0-0.001-0.001-0.001
	c-0.002-0.005-0.003-0.009-0.005-0.014C60.664,231.327,56.263,216.763,53.27,203c0-0.002-0.001-0.003-0.001-0.004
	c-3.438-15.754-5.636-30.927-6.534-45.095c-0.001-0.007-0.002-0.013-0.002-0.019c-1.044-16.318-0.914-31.868,0.388-46.217
	c0.015-0.168,0.016-0.334,0.02-0.5c1.716-22.194,5.825-44.443,12.231-66.143c1.208-4.093-1.131-8.39-5.224-9.598
	c-4.089-1.211-8.39,1.13-9.598,5.223c-6.78,22.967-11.113,46.532-12.879,70.039c-0.012,0.153-0.009,0.304-0.011,0.456
	c-1.3,14.895-1.423,30.943-0.348,47.727c0,0.004,0,0.007,0,0.011c0.948,14.933,3.254,30.871,6.852,47.372
	c0.002,0.011,0.003,0.022,0.005,0.033c3.156,14.509,7.776,29.814,13.734,45.489c0.002,0.004,0.003,0.008,0.004,0.012
	c5.253,13.841,12.049,28.242,20.202,42.802c0.002,0.003,0.003,0.006,0.005,0.009c7.236,12.943,16.082,26.207,26.294,39.423
	c0.001,0.001,0.002,0.002,0.003,0.003c0.001,0.001,0.001,0.001,0.001,0.002c9.108,11.805,19.867,23.674,31.979,35.279
	c0.003,0.003,0.007,0.006,0.01,0.009c10.823,10.382,23.312,20.569,37.121,30.281c23.982,18.411,36.851,23.277,49.294,27.982
	c7.745,2.928,15.284,5.784,25.721,12.203c-7.99,6.124-17.244,13.808-28.224,23.632c-3.18,2.845-3.452,7.73-0.606,10.91
	c1.526,1.706,3.639,2.575,5.761,2.575c1.834,0,3.675-0.649,5.149-1.969c12.732-11.393,22.908-19.719,31.383-25.981
	c8.474,6.262,18.65,14.588,31.383,25.981c1.474,1.319,3.315,1.969,5.149,1.969c2.122,0,4.235-0.869,5.761-2.575
	c2.846-3.18,2.575-8.065-0.606-10.91c-10.979-9.825-20.234-17.509-28.224-23.632c10.436-6.419,17.976-9.275,25.721-12.203
	c12.444-4.704,25.312-9.571,49.294-27.982c13.809-9.712,26.298-19.899,37.121-30.281c0.003-0.003,0.007-0.006,0.01-0.009
	c12.112-11.605,22.871-23.474,31.979-35.279c0-0.001,0.001-0.001,0.001-0.002c0.001-0.001,0.002-0.002,0.003-0.003
	c10.212-13.216,19.058-26.48,26.294-39.423c0.002-0.003,0.003-0.006,0.005-0.009c8.152-14.56,14.949-28.961,20.202-42.802
	c0.001-0.004,0.003-0.008,0.004-0.012c5.958-15.675,10.578-30.98,13.734-45.489c0.002-0.011,0.003-0.022,0.005-0.033
	c3.599-16.501,5.904-32.439,6.852-47.372c0-0.004,0-0.007,0-0.011C481.763,142.085,481.641,126.037,480.34,111.142z"/>
<g>
</g>
<g>
</g>
<g>
</g>
<g>
</g>
<g>
</g>
<g>
</g>
<g>
</g>
<g>
</g>
<g>
</g>
<g>
</g>
<g>
</g>
<g>
</g>
<g>
</g>
<g>
</g>
<g>
</g>
</svg>
