<?xml version="1.0" encoding="utf-8"?>
<!-- Generator: Adobe Illustrator 17.0.0, SVG Export Plug-In . SVG Version: 6.00 Build 0)  -->
<svg xmlns="http://www.w3.org/2000/svg" width="177.969" height="308.49" viewBox="0 0 177.969 308.49">
  <g id="happy_meal_celebration" data-name="happy meal celebration" transform="translate(-154 -4707.285)">
    <g id="Group_410" data-name="Group 410" transform="translate(207.242 4923.288)">
      <path id="Path_3982" data-name="Path 3982" d="M95.248,217.49l3.136-47.415,1.938-24.494H32.763L34.7,170.075l3.136,47.415Z" transform="translate(-32.763 -125.003)" fill="#cf0013"/>
      <g id="Group_409" data-name="Group 409" transform="translate(8.592 53.758)">
        <path id="Path_3983" data-name="Path 3983" d="M63.237,187.891c-9.947,0-18.4-7.2-21.443-17.208l-2.527,1.155-1.217-2.662L45,166l1.217,2.662-2.135.977c2.1,7.511,9.879,13.087,19.158,13.087S80.3,177.148,82.4,169.637l-2.137-.977L81.479,166l6.947,3.179-1.219,2.662-2.525-1.155C81.635,180.694,73.184,187.891,63.237,187.891Z" transform="translate(-38.05 -165.998)" fill="#ffa600"/>
      </g>
      <path id="Path_3984" data-name="Path 3984" d="M82.07,132.918c-5.725,0-11.611,6.115-15.528,13.721-3.915-7.605-9.8-13.721-15.526-13.721-5.857,0-13.032,6.18-18.253,20.578H44.03c1.2-8.337,3.2-13.451,6.447-13.451,3.385,0,5.553,5.147,6.874,13.451H75.735c1.32-8.3,3.489-13.451,6.874-13.451,3.24,0,5.243,5.114,6.447,13.451h11.267C95.1,139.1,87.926,132.918,82.07,132.918Z" transform="translate(-32.763 -132.918)" fill="#ffa600"/>
    </g>
    <g id="Group_411" data-name="Group 411" transform="translate(154 4707.285)">
      <rect id="Rectangle_334" data-name="Rectangle 334" width="7.4" height="15.215" transform="matrix(0.981, -0.194, 0.194, 0.981, 120.899, 160.759)" fill="#ffa600"/>
      <rect id="Rectangle_335" data-name="Rectangle 335" width="7.4" height="15.215" transform="translate(37.107 181.135) rotate(-60)" fill="#cf0013"/>
      <rect id="Rectangle_336" data-name="Rectangle 336" width="7.4" height="15.215" transform="matrix(0.981, -0.194, 0.194, 0.981, 59.916, 185.01)" fill="#ffa600"/>
      <rect id="Rectangle_337" data-name="Rectangle 337" width="7.4" height="15.215" transform="matrix(-0.218, 0.976, -0.976, -0.218, 85.56, 164.11)" fill="#ffa600"/>
      <rect id="Rectangle_338" data-name="Rectangle 338" width="7.4" height="15.215" transform="matrix(0.82, 0.572, -0.572, 0.82, 106.252, 160.807)" fill="#ffa600"/>
      <rect id="Rectangle_339" data-name="Rectangle 339" width="7.4" height="15.215" transform="translate(90.07 212.259) rotate(150)" fill="#ffa600"/>
      <rect id="Rectangle_340" data-name="Rectangle 340" width="7.4" height="15.215" transform="translate(95.646 206.978) rotate(-131.795)" fill="#cf0013"/>
      <rect id="Rectangle_341" data-name="Rectangle 341" width="7.4" height="15.215" transform="matrix(0.572, -0.82, 0.82, 0.572, 75.303, 186.762)" fill="#278ebf"/>
      <rect id="Rectangle_342" data-name="Rectangle 342" width="7.4" height="15.215" transform="translate(156.285 109.594) rotate(37.403)" fill="#ffa600"/>
      <rect id="Rectangle_343" data-name="Rectangle 343" width="7.4" height="15.215" transform="translate(45.019 116.83) rotate(-52.597)" fill="#cf0013"/>
      <rect id="Rectangle_344" data-name="Rectangle 344" width="7.4" height="15.215" transform="translate(11.343 69.919) rotate(48.205)" fill="#ffa600"/>
      <rect id="Rectangle_345" data-name="Rectangle 345" width="7.4" height="15.215" transform="translate(40.63 41.346) rotate(109.443)" fill="#cf0013"/>
      <rect id="Rectangle_346" data-name="Rectangle 346" width="7.4" height="15.215" transform="matrix(-0.641, 0.768, -0.768, -0.641, 135.216, 44.339)" fill="#ffa600"/>
      <rect id="Rectangle_347" data-name="Rectangle 347" width="7.4" height="15.215" transform="translate(167.21 55.323) rotate(-135)" fill="#278ebf"/>
      <rect id="Rectangle_348" data-name="Rectangle 348" width="7.4" height="15.215" transform="translate(150.113 13.638) rotate(-117.778)" fill="#cf0013"/>
      <rect id="Rectangle_349" data-name="Rectangle 349" width="7.4" height="15.215" transform="matrix(0.572, -0.82, 0.82, 0.572, 158.325, 74.121)" fill="#cf0013"/>
      <rect id="Rectangle_350" data-name="Rectangle 350" width="7.4" height="15.215" transform="matrix(0.976, 0.218, -0.218, 0.976, 75.378, 121.56)" fill="#ffa600"/>
      <rect id="Rectangle_351" data-name="Rectangle 351" width="7.4" height="15.215" transform="matrix(0.981, -0.194, 0.194, 0.981, 102.693, 131.651)" fill="#cf0013"/>
      <rect id="Rectangle_352" data-name="Rectangle 352" width="7.4" height="15.215" transform="translate(78.59 72.636) rotate(19.443)" fill="#278ebf"/>
      <rect id="Rectangle_353" data-name="Rectangle 353" width="7.4" height="15.215" transform="translate(78.806 35.881) rotate(66.555)" fill="#ffa600"/>
      <rect id="Rectangle_354" data-name="Rectangle 354" width="7.4" height="15.215" transform="translate(33.057 3.562) rotate(6.71)" fill="#ffa600"/>
      <rect id="Rectangle_355" data-name="Rectangle 355" width="7.4" height="15.215" transform="translate(129.439 85.202) rotate(9.203)" fill="#ffa600"/>
      <rect id="Rectangle_356" data-name="Rectangle 356" width="7.4" height="15.215" transform="matrix(0.572, -0.82, 0.82, 0.572, 93.112, 102.314)" fill="#ffa600"/>
      <rect id="Rectangle_357" data-name="Rectangle 357" width="7.4" height="15.215" transform="matrix(0.981, -0.194, 0.194, 0.981, 20.581, 123.659)" fill="#278ebf"/>
      <rect id="Rectangle_358" data-name="Rectangle 358" width="7.4" height="15.215" transform="translate(115.057 199.148) rotate(-103.46)" fill="#ffa600"/>
      <rect id="Rectangle_359" data-name="Rectangle 359" width="7.4" height="15.215" transform="matrix(-0.768, -0.641, 0.641, -0.768, 133.447, 154.823)" fill="#278ebf"/>
      <path id="Path_3985" data-name="Path 3985" d="M94.155,107.125l-6.864-2.764,6.274-5.675-.591-8.439,6.864,2.764-6.274,5.675Z" transform="translate(54.564 56.412)" fill="#cf0013"/>
      <path id="Path_3986" data-name="Path 3986" d="M32.179,69.1l-6.864-2.764,6.274-5.675L31,52.221l6.864,2.764L31.589,60.66Z" transform="translate(15.824 32.643)" fill="#ffa600"/>
      <path id="Path_3987" data-name="Path 3987" d="M40.257,98.311l-5.218,5.247L32.254,95.57l-8-2.742,5.218-5.247,2.785,7.988Z" transform="translate(15.159 54.746)" fill="#ffa600"/>
    </g>
  </g>
</svg>
