<?xml version="1.0" encoding="utf-8"?>
<!-- Generator: Adobe Illustrator 17.0.0, SVG Export Plug-In . SVG Version: 6.00 Build 0)  -->
<svg id="logo_mcdelivery" data-name="logo mcdelivery" xmlns="http://www.w3.org/2000/svg" xmlns:xlink="http://www.w3.org/1999/xlink" width="116" height="122" viewBox="0 0 116 122">
  <defs>
    <clipPath id="clip-path">
      <rect id="Rectangle_23" data-name="Rectangle 23" width="87.209" height="87.348"/>
    </clipPath>
    <clipPath id="clip-path-13">
      <rect id="Rectangle_35" data-name="Rectangle 35" width="116" height="20.739"/>
    </clipPath>
  </defs>
  <g id="Group_43" data-name="Group 43">
    <g id="Group_29" data-name="Group 29" transform="translate(14.395)">
      <g id="Group_17" data-name="Group 17" clip-path="url(#clip-path)">
        <path id="Path_29" data-name="Path 29" d="M73.1,0a43.674,43.674,0,1,0,43.6,43.674A43.627,43.627,0,0,0,73.1,0" transform="translate(-29.5)" fill="#db001c"/>
      </g>
      <g id="Group_18" data-name="Group 18" clip-path="url(#clip-path)">
        <path id="Path_30" data-name="Path 30" d="M105.576,39.833c3.751,0,6.821,15.908,6.821,35.476h5.457c0-21.081-5.505-38.209-12.278-38.209-3.849,0-7.308,5.124-9.549,13.175-2.241-8.052-5.7-13.175-9.549-13.175C79.705,37.1,74.2,54.228,74.2,75.309h5.457c0-19.617,3.069-35.476,6.821-35.476S93.3,54.521,93.3,72.576h5.457c0-18.055,3.069-32.743,6.821-32.743" transform="translate(-52.422 -18.996)" fill="#ffb71b"/>
      </g>
      <g id="Group_19" data-name="Group 19" clip-path="url(#clip-path)">
        <path id="Path_31" data-name="Path 31" d="M188.387,151.244H187.9V151h1.218v.244h-.438v1.318h-.292Z" transform="translate(-110.727 -77.316)" fill="#db001c"/>
      </g>
      <g id="Group_20" data-name="Group 20" clip-path="url(#clip-path)">
        <path id="Path_32" data-name="Path 32" d="M192.41,152.562h-.341v-.976l-.292.586h-.244l-.341-.586v.976H190.9V151h.292l.438.878.487-.878h.292Z" transform="translate(-112.265 -77.316)" fill="#db001c"/>
      </g>
      <g id="Group_21" data-name="Group 21" clip-path="url(#clip-path)">
        <path id="Path_33" data-name="Path 33" d="M94.231,135.218a1.315,1.315,0,1,1-1.315-1.318,1.311,1.311,0,0,1,1.315,1.318" transform="translate(-61.345 -68.56)" fill="#fff"/>
      </g>
      <g id="Group_22" data-name="Group 22" clip-path="url(#clip-path)">
        <path id="Path_34" data-name="Path 34" d="M104.131,136.918a1.315,1.315,0,1,1-1.315-1.318,1.377,1.377,0,0,1,1.315,1.318" transform="translate(-66.421 -69.43)" fill="#fff"/>
      </g>
      <g id="Group_23" data-name="Group 23" clip-path="url(#clip-path)">
        <path id="Path_35" data-name="Path 35" d="M114.031,137.718a1.315,1.315,0,1,1-1.315-1.318,1.311,1.311,0,0,1,1.315,1.318" transform="translate(-71.498 -69.84)" fill="#fff"/>
      </g>
      <g id="Group_24" data-name="Group 24" clip-path="url(#clip-path)">
        <path id="Path_36" data-name="Path 36" d="M124.031,137.718a1.315,1.315,0,1,1-1.315-1.318,1.311,1.311,0,0,1,1.315,1.318" transform="translate(-76.626 -69.84)" fill="#fff"/>
      </g>
      <g id="Group_25" data-name="Group 25" clip-path="url(#clip-path)">
        <path id="Path_37" data-name="Path 37" d="M133.931,136.918a1.315,1.315,0,1,1-1.315-1.318,1.377,1.377,0,0,1,1.315,1.318" transform="translate(-81.703 -69.43)" fill="#fff"/>
      </g>
      <g id="Group_26" data-name="Group 26" clip-path="url(#clip-path)">
        <path id="Path_38" data-name="Path 38" d="M143.831,135.218a1.315,1.315,0,1,1-1.315-1.318,1.311,1.311,0,0,1,1.315,1.318" transform="translate(-86.779 -68.56)" fill="#fff"/>
      </g>
      <g id="Group_27" data-name="Group 27" clip-path="url(#clip-path)">
        <path id="Path_39" data-name="Path 39" d="M76.513,125.476h0a2.331,2.331,0,1,1-1.657.683,2.341,2.341,0,0,1,1.657-.683m0-.976a3.318,3.318,0,1,0,3.313,3.318,3.319,3.319,0,0,0-3.313-3.318" transform="translate(-51.909 -63.747)" fill="#fff"/>
      </g>
      <g id="Group_28" data-name="Group 28" clip-path="url(#clip-path)">
        <path id="Path_40" data-name="Path 40" d="M158.126,127.917a3.313,3.313,0,1,1-3.313-3.318,3.319,3.319,0,0,1,3.313,3.318" transform="translate(-92.061 -63.797)" fill="#fff"/>
      </g>
    </g>
    <g id="Group_42" data-name="Group 42" transform="translate(0 101.261)">
      <g id="Group_30" data-name="Group 30" clip-path="url(#clip-path-13)">
        <path id="Path_41" data-name="Path 41" d="M232.339,238.193H231.9V237.9h1.219v.293h-.439v1.318h-.341Z" transform="translate(-118.873 -222.577)"/>
      </g>
      <g id="Group_31" data-name="Group 31" clip-path="url(#clip-path-13)">
        <path id="Path_42" data-name="Path 42" d="M236.411,239.51h-.341v-.976l-.292.586h-.292l-.292-.586v.976H234.9V237.9h.292l.439.927.439-.927h.341Z" transform="translate(-120.411 -222.577)"/>
      </g>
      <g id="Group_32" data-name="Group 32" clip-path="url(#clip-path-13)">
        <path id="Path_43" data-name="Path 43" d="M12.087,208.2h3.655v16.1h-3.8v-8.54l-2.534,4.929H6.287L3.8,215.764v8.54H0V208.2H3.607l4.24,8.735Z" transform="translate(0 -207.37)"/>
      </g>
      <g id="Group_33" data-name="Group 33" clip-path="url(#clip-path-13)">
        <path id="Path_44" data-name="Path 44" d="M35.5,222.976v-1.562c0-3.221,2.1-5.514,5.9-5.514,3.314,0,5.605,2.049,5.654,4.929H43.542a1.92,1.92,0,0,0-2.1-1.854,1.968,1.968,0,0,0-2.1,2.245v2a1.989,1.989,0,0,0,2.1,2.245,1.949,1.949,0,0,0,2.1-1.854h3.509c-.049,2.879-2.339,4.929-5.654,4.929-3.8-.049-5.9-2.342-5.9-5.563" transform="translate(-18.197 -211.313)"/>
      </g>
      <g id="Group_34" data-name="Group 34" clip-path="url(#clip-path-13)">
        <path id="Path_45" data-name="Path 45" d="M69.318,208.2c4.435,0,6.726,2.684,6.726,6.393v3.318c0,3.709-2.291,6.392-6.726,6.392H62.3V208.2Zm2.729,6.344c0-2.049-1.072-3.123-3.461-3.123H66.2v9.613h2.388c2.388,0,3.461-1.074,3.461-3.123Z" transform="translate(-31.935 -207.37)"/>
      </g>
      <g id="Group_35" data-name="Group 35" clip-path="url(#clip-path-13)">
        <path id="Path_46" data-name="Path 46" d="M97.253,223.364v.293a2.108,2.108,0,0,0,4,.927h3.412c-.39,2.245-2.632,3.855-5.361,3.855-3.46,0-5.8-2-5.8-5.465v-1.513c0-3.367,2.047-5.661,5.7-5.661s5.508,2.44,5.508,5.319v2.2H97.253Zm0-2.245H101.2v-.439a1.837,1.837,0,0,0-1.95-2.1c-1.413,0-2,.878-2,2.293Z" transform="translate(-47.929 -211.262)"/>
      </g>
      <g id="Group_36" data-name="Group 36" transform="translate(0 0)" clip-path="url(#clip-path-13)">
        <rect id="Rectangle_41" data-name="Rectangle 41" width="3.85" height="16.786" transform="translate(58.341 0.098)"/>
      </g>
      <g id="Group_37" data-name="Group 37" clip-path="url(#clip-path-13)">
        <path id="Path_47" data-name="Path 47" d="M133.545,206.5a2.052,2.052,0,1,1-2.145,2.049,1.973,1.973,0,0,1,2.145-2.049m-1.9,16.884V211.331a6.476,6.476,0,0,0,3.85,0v12.053Z" transform="translate(-67.356 -206.5)"/>
      </g>
      <g id="Group_38" data-name="Group 38" clip-path="url(#clip-path-13)">
        <path id="Path_48" data-name="Path 48" d="M147.194,228.5l-4.094-12h3.8l2.193,8.052,2.193-8.052h3.8L151,228.5Z" transform="translate(-73.354 -211.62)"/>
      </g>
      <g id="Group_39" data-name="Group 39" clip-path="url(#clip-path-13)">
        <path id="Path_49" data-name="Path 49" d="M171.953,223.364v.293a2.108,2.108,0,0,0,4,.927h3.412c-.39,2.245-2.632,3.855-5.361,3.855-3.46,0-5.8-2-5.8-5.465v-1.513c0-3.367,2.047-5.661,5.7-5.661s5.508,2.44,5.508,5.319v2.2h-7.457Zm0-2.245H175.9v-.439a1.837,1.837,0,0,0-1.95-2.1c-1.413,0-2,.878-2,2.293Z" transform="translate(-86.22 -211.262)"/>
      </g>
      <g id="Group_40" data-name="Group 40" clip-path="url(#clip-path-13)">
        <path id="Path_50" data-name="Path 50" d="M202.267,220.055a3.951,3.951,0,0,0-.829-.049c-1.706,0-2.388.878-2.388,2.879V228.4H195.2V216.346h3.655v2.147a2.552,2.552,0,0,1,2.827-2.293,1.692,1.692,0,0,1,.634.1v3.757Z" transform="translate(-100.061 -211.467)"/>
      </g>
      <g id="Group_41" data-name="Group 41" clip-path="url(#clip-path-13)">
        <path id="Path_51" data-name="Path 51" d="M213.752,229.283a5.31,5.31,0,0,0,1.267.146c.682,0,.975-.2,1.17-.732l.1-.244L211.9,216.4h3.85l2.291,8.149,1.95-8.149h3.85l-3.753,12.053-.341,1.025a3.667,3.667,0,0,1-4,2.781,5.049,5.049,0,0,1-2-.342Z" transform="translate(-108.621 -211.569)"/>
      </g>
    </g>
  </g>
</svg>
