<svg xmlns="http://www.w3.org/2000/svg" width="48" height="48" viewBox="0 0 48 48"> <g id="magicpin" transform="translate(-162.387 60.262)"> <rect id="Rectangle_113" data-name="Rectangle 113" width="48" height="48" transform="translate(162.387 -60.262)" fill="#0d2271"></rect> <g id="Group_280" data-name="Group 280" transform="translate(165.765 -44.408)"> <path id="Path_980" data-name="Path 980" d="M306.306,27.694a.133.133,0,0,1,.039-.119l.517-.5a.195.195,0,0,0-.108-.333l-.711-.1a.133.133,0,0,1-.1-.074l-.313-.645a.195.195,0,0,0-.35,0l-.313.645a.133.133,0,0,1-.1.074l-.711.1a.195.195,0,0,0-.108.333l.517.5a.132.132,0,0,1,.039.119l-.126.706a.195.195,0,0,0,.283.206l.633-.338a.133.133,0,0,1,.125,0l.633.338a.193.193,0,0,0,.206-.014.193.193,0,0,0,.077-.192Z" transform="translate(-284.486 -25.817)" fill="#fff"></path> <path id="Path_981" data-name="Path 981" d="M239.72,45.053h-.681a.494.494,0,0,0-.447.287,2.28,2.28,0,0,0-.407-.229,2.249,2.249,0,0,0-.895-.181,2.3,2.3,0,0,0-1.751.779,2.792,2.792,0,0,0-.712,1.963,2.73,2.73,0,0,0,.735,1.936,2.349,2.349,0,0,0,1.762.788,2.119,2.119,0,0,0,1.239-.377.492.492,0,0,0,.475.365h.681a.492.492,0,0,0,.491-.492V45.545a.492.492,0,0,0-.491-.492M238.3,48.516a.991.991,0,0,1-.758.316.968.968,0,0,1-.742-.322,1.184,1.184,0,0,1-.308-.851,1.17,1.17,0,0,1,.3-.84.967.967,0,0,1,.744-.316,1.006,1.006,0,0,1,.764.311,1.15,1.15,0,0,1,.3.839,1.191,1.191,0,0,1-.3.861" transform="translate(-226.582 -41.821)" fill="#fff"></path> <path id="Path_982" data-name="Path 982" d="M275.787,44.972h-.678a.493.493,0,0,0-.452.3,2.34,2.34,0,0,0-.446-.249,2.255,2.255,0,0,0-.867-.169,2.325,2.325,0,0,0-1.679.69,2.924,2.924,0,0,0-.045,3.907,2.388,2.388,0,0,0,1.789.765,2.342,2.342,0,0,0,.87-.155,1.954,1.954,0,0,0,.323-.167.912.912,0,0,1-.089.616,1.073,1.073,0,0,1-.938.445,1.328,1.328,0,0,1-.9-.3.5.5,0,0,0-.341-.138h-.823a.493.493,0,0,0-.435.724,2.253,2.253,0,0,0,.366.5,2.356,2.356,0,0,0,.893.572,3.68,3.68,0,0,0,1.258.19,2.661,2.661,0,0,0,2.144-.854,3.141,3.141,0,0,0,.542-2.139V45.465a.494.494,0,0,0-.493-.493m-1.4,3.382a.985.985,0,0,1-.746.3,1.035,1.035,0,0,1-.776-.31,1.093,1.093,0,0,1-.308-.809,1.075,1.075,0,0,1,.3-.787,1.112,1.112,0,0,1,1.527-.006,1.09,1.09,0,0,1,.3.8,1.106,1.106,0,0,1-.294.811" transform="translate(-256.781 -41.752)" fill="#fff"></path> <path id="Path_983" data-name="Path 983" d="M309.146,45.6h-.668A.488.488,0,0,0,308,46.1v4.252a.488.488,0,0,0,.482.493h.668a.488.488,0,0,0,.482-.493V46.1a.488.488,0,0,0-.482-.493" transform="translate(-287.845 -42.383)" fill="#fff"></path> <path id="Path_984" data-name="Path 984" d="M393.374,45.6h-.668a.488.488,0,0,0-.482.493v4.252a.488.488,0,0,0,.482.493h.668a.488.488,0,0,0,.482-.493V46.1a.488.488,0,0,0-.482-.493" transform="translate(-358.367 -42.383)" fill="#fff"></path> <path id="Path_985" data-name="Path 985" d="M325.332,45.211a3.051,3.051,0,0,0-1.376-.306,3.121,3.121,0,0,0-1.493.36,2.714,2.714,0,0,0-.657,4.291,3.162,3.162,0,0,0,4.266-.026.491.491,0,0,0-.079-.745l-.524-.359a.489.489,0,0,0-.614.047,1.316,1.316,0,0,1-.945.334,1.2,1.2,0,0,1-.88-.317,1.077,1.077,0,0,1-.325-.819,1.121,1.121,0,0,1,.341-.851,1.253,1.253,0,0,1,.917-.332,1.432,1.432,0,0,1,.549.1,1.274,1.274,0,0,1,.355.237.494.494,0,0,0,.568.067l.564-.31a.488.488,0,0,0,.247-.347.494.494,0,0,0-.12-.414,2.657,2.657,0,0,0-.793-.6" transform="translate(-298.759 -41.799)" fill="#fff"></path> <path id="Path_986" data-name="Path 986" d="M359.046,44.933a2.259,2.259,0,0,0-.9.18,2.332,2.332,0,0,0-.411.231.493.493,0,0,0-.448-.289h-.672a.492.492,0,0,0-.491.492v5.972a.492.492,0,0,0,.491.491h.672a.492.492,0,0,0,.491-.491V50.029a2.17,2.17,0,0,0,.375.2,2.216,2.216,0,0,0,.854.164,2.353,2.353,0,0,0,1.764-.788,2.726,2.726,0,0,0,.736-1.935,2.788,2.788,0,0,0-.713-1.962,2.309,2.309,0,0,0-1.753-.778m.5,3.577a.975.975,0,0,1-.746.322,1,1,0,0,1-.762-.317,1.186,1.186,0,0,1-.306-.86,1.146,1.146,0,0,1,.3-.839,1.007,1.007,0,0,1,.763-.312.978.978,0,0,1,.752.316,1.166,1.166,0,0,1,.3.839,1.18,1.18,0,0,1-.309.85" transform="translate(-328.144 -41.822)" fill="#fff"></path> <path id="Path_987" data-name="Path 987" d="M191.077,45.12h0a1.908,1.908,0,0,0-1.015-.271,2.139,2.139,0,0,0-1.013.247,2.1,2.1,0,0,0-.565.44,1.726,1.726,0,0,0-.475-.433,1.749,1.749,0,0,0-.927-.254,2.223,2.223,0,0,0-.911.187,2.124,2.124,0,0,0-.389.227.492.492,0,0,0-.449-.291h-.682a.493.493,0,0,0-.492.493v4.252a.493.493,0,0,0,.492.493h.682a.493.493,0,0,0,.492-.493v-2.74a.69.69,0,1,1,1.38,0l0,.977V49.7a.507.507,0,0,0,.505.507h.64a.507.507,0,0,0,.506-.507V46.977a.69.69,0,1,1,1.38,0v1.114h0v1.625a.493.493,0,0,0,.492.493h.69a.493.493,0,0,0,.492-.493V47.179a3.482,3.482,0,0,0-.188-1.335,1.6,1.6,0,0,0-.645-.724" transform="translate(-184.16 -41.752)" fill="#fff"></path> <path id="Path_988" data-name="Path 988" d="M410.434,45.582h0a1.853,1.853,0,0,0-1.356-.559,2.008,2.008,0,0,0-.757.15,2.454,2.454,0,0,0-.452.25.487.487,0,0,0-.441-.278h-.676a.488.488,0,0,0-.488.488v4.207a.489.489,0,0,0,.488.488h.676a.489.489,0,0,0,.488-.488V47.129a.678.678,0,1,1,1.357,0v2.711a.489.489,0,0,0,.488.488h.663a.489.489,0,0,0,.488-.488V46.978a1.912,1.912,0,0,0-.479-1.4" transform="translate(-370.121 -41.898)" fill="#fff"></path> <rect id="Rectangle_114" data-name="Rectangle 114" width="0.465" height="2.31" transform="translate(4.699 12.822)" fill="#fff"></rect> <path id="Path_989" data-name="Path 989" d="M219.853,108.71v1H219.4v-1.049a.289.289,0,0,0-.287-.31.3.3,0,0,0-.307.323v1.036h-.455v-1.726h.445v.2a.545.545,0,0,1,.462-.244c.492,0,.6.406.6.772" transform="translate(-212.785 -94.575)" fill="#fff"></path> <path id="Path_990" data-name="Path 990" d="M230.9,106.531h-.429v-.178a.671.671,0,0,1-.511.221.84.84,0,0,1-.845-.9.821.821,0,0,1,.818-.908.646.646,0,0,1,.511.224v-.842h.455Zm-.884-1.366a.455.455,0,0,0-.442.508.447.447,0,0,0,.442.5.508.508,0,0,0,0-1.007" transform="translate(-221.802 -91.399)" fill="#fff"></path> <path id="Path_991" data-name="Path 991" d="M242.3,104.044a.261.261,0,1,1-.264.261.259.259,0,0,1,.264-.261m-.224.676h.455v1.726h-.455Z" transform="translate(-232.619 -91.315)" fill="#fff"></path> <path id="Path_992" data-name="Path 992" d="M247.351,108.6a.7.7,0,0,1,.373.1v-.112c0-.152-.112-.254-.313-.254a1.018,1.018,0,0,0-.459.122l-.172-.31a1.287,1.287,0,0,1,.68-.2c.554,0,.719.29.719.676v1.092h-.4l-.03-.112a.539.539,0,0,1-.419.155.58.58,0,1,1,.023-1.148m.086.8c.172,0,.3-.092.3-.238s-.125-.241-.3-.241-.3.1-.3.241.129.238.3.238" transform="translate(-236.507 -94.575)" fill="#fff"></path> <path id="Path_993" data-name="Path 993" d="M257.733,104.612h.37l-.016.785h-.337Z" transform="translate(-245.761 -91.79)" fill="#fff"></path> <path id="Path_994" data-name="Path 994" d="M261.283,109.43l.267-.238a.492.492,0,0,0,.4.188c.129,0,.211-.056.211-.155,0-.264-.815-.162-.815-.775,0-.32.274-.511.627-.511a.662.662,0,0,1,.591.307l-.3.224a.39.39,0,0,0-.31-.165c-.105,0-.178.053-.178.139,0,.274.819.142.819.759,0,.337-.29.548-.663.548a.738.738,0,0,1-.643-.32" transform="translate(-248.733 -94.575)" fill="#fff"></path> <path id="Path_995" data-name="Path 995" d="M275.6,106.334h-.32l.069-.343h.323l.089-.442h-.32l.069-.346h.323l.125-.591h.379l-.122.591h.366l.122-.591h.383l-.122.591h.317l-.069.346h-.32l-.089.442h.317l-.069.343h-.32l-.122.587h-.383l.122-.587h-.366l-.122.587h-.383Zm.822-.343.089-.442h-.366l-.089.442Z" transform="translate(-260.45 -91.789)" fill="#fff"></path> <path id="Path_996" data-name="Path 996" d="M288.561,104.767l.436-.155h.379v2.31h-.459v-1.851l-.241.083Z" transform="translate(-271.572 -91.79)" fill="#fff"></path> <path id="Path_997" data-name="Path 997" d="M300.445,109.43l.267-.238a.492.492,0,0,0,.4.188c.129,0,.211-.056.211-.155,0-.264-.815-.162-.815-.775,0-.32.274-.511.627-.511a.662.662,0,0,1,.591.307l-.3.224a.39.39,0,0,0-.31-.165c-.105,0-.178.053-.178.139,0,.274.818.142.818.759,0,.337-.29.548-.663.548a.738.738,0,0,1-.643-.32" transform="translate(-281.523 -94.575)" fill="#fff"></path> <path id="Path_998" data-name="Path 998" d="M310.038,108.6a.7.7,0,0,1,.373.1v-.112c0-.152-.112-.254-.313-.254a1.018,1.018,0,0,0-.459.122l-.172-.31a1.287,1.287,0,0,1,.68-.2c.554,0,.719.29.719.676v1.092h-.4l-.03-.112a.539.539,0,0,1-.419.155.58.58,0,1,1,.023-1.148m.086.8c.172,0,.3-.092.3-.238s-.125-.241-.3-.241-.3.1-.3.241.129.238.3.238" transform="translate(-288.994 -94.575)" fill="#fff"></path> <path id="Path_999" data-name="Path 999" d="M320.248,109.928l-.617-1.726h.485l.4,1.241.4-1.241h.485l-.617,1.726Z" transform="translate(-297.586 -94.796)" fill="#fff"></path> <path id="Path_1000" data-name="Path 1000" d="M331.658,104.044a.261.261,0,1,1-.264.261.259.259,0,0,1,.264-.261m-.225.676h.455v1.726h-.455Z" transform="translate(-307.435 -91.315)" fill="#fff"></path> <path id="Path_1001" data-name="Path 1001" d="M338.151,108.71v1H337.7v-1.049a.289.289,0,0,0-.287-.31.3.3,0,0,0-.307.323v1.036h-.455v-1.726h.445v.2a.545.545,0,0,1,.462-.244c.492,0,.6.406.6.772" transform="translate(-311.833 -94.575)" fill="#fff"></path> <path id="Path_1002" data-name="Path 1002" d="M347.758,109.832a1.131,1.131,0,0,0,.492.119c.247,0,.475-.076.475-.343v-.079a.643.643,0,0,1-.5.221.823.823,0,0,1-.825-.9.842.842,0,0,1,.841-.908.659.659,0,0,1,.515.224v-.181h.429v1.508c0,.644-.419.851-.927.851a1.389,1.389,0,0,1-.634-.158Zm.535-1.492a.449.449,0,0,0-.439.5.454.454,0,0,0,.442.505.507.507,0,0,0,0-1.007" transform="translate(-320.833 -94.575)" fill="#fff"></path> <path id="Path_1003" data-name="Path 1003" d="M359.766,109.43l.267-.238a.492.492,0,0,0,.4.188c.129,0,.211-.056.211-.155,0-.264-.815-.162-.815-.775,0-.32.274-.511.627-.511a.662.662,0,0,1,.591.307l-.3.224a.39.39,0,0,0-.31-.165c-.105,0-.178.053-.178.139,0,.274.819.142.819.759,0,.337-.29.548-.663.548a.738.738,0,0,1-.643-.32" transform="translate(-331.191 -94.575)" fill="#fff"></path> <path id="Path_1004" data-name="Path 1004" d="M374.389,108.6a.7.7,0,0,1,.373.1v-.112c0-.152-.112-.254-.313-.254a1.018,1.018,0,0,0-.459.122l-.172-.31a1.287,1.287,0,0,1,.68-.2c.554,0,.719.29.719.676v1.092h-.4l-.03-.112a.539.539,0,0,1-.419.155.58.58,0,1,1,.023-1.148m.086.8c.171,0,.3-.092.3-.238s-.125-.241-.3-.241-.3.1-.3.241.129.238.3.238" transform="translate(-342.873 -94.575)" fill="#fff"></path> <path id="Path_1005" data-name="Path 1005" d="M384.995,107.981h.429v.182a.658.658,0,0,1,.511-.224.842.842,0,0,1,.845.9.821.821,0,0,1-.818.908.658.658,0,0,1-.511-.221v.8h-.455Zm.884,1.366a.455.455,0,0,0,.442-.508.447.447,0,0,0-.442-.5.508.508,0,0,0,0,1.007" transform="translate(-352.314 -94.575)" fill="#fff"></path> <path id="Path_1006" data-name="Path 1006" d="M397.589,107.981h.429v.182a.658.658,0,0,1,.511-.224.842.842,0,0,1,.845.9.821.821,0,0,1-.818.908.658.658,0,0,1-.511-.221v.8h-.455Zm.884,1.366a.455.455,0,0,0,.442-.508.447.447,0,0,0-.442-.5.508.508,0,0,0,0,1.007" transform="translate(-362.859 -94.575)" fill="#fff"></path> </g> </g> </svg>