<svg id="Group_376" data-name="Group 376" xmlns="http://www.w3.org/2000/svg" width="48" height="48" viewBox="0 0 48 48"> <path id="Rectangle-Copy-10" d="M1.184,0H46.816A1.184,1.184,0,0,1,48,1.184V46.816A1.184,1.184,0,0,1,46.816,48H1.184A1.183,1.183,0,0,1,0,46.816V1.184A1.184,1.184,0,0,1,1.184,0Z" fill="#e23744"></path> <g id="Group" transform="translate(2.976 19.497)"> <path id="zomato-copy-10" d="M67.978,408.958l-.038,1.226-3.172,3.476c1.325,0,2.166-.014,2.65-.041-.14.66-.255,1.2-.369,2.007-.637-.054-1.631-.067-2.624-.067-1.108,0-2.077.014-2.854.067l.025-1.239,3.173-3.463c-1.389,0-1.9.014-2.472.027.128-.62.217-1.307.306-1.994,1.007.041,1.4.054,2.714.054C66.526,409.012,67.214,409,67.978,408.958Zm2.255,3.845c0,.822.268,1.24.726,1.24.612,0,1.1-1,1.1-2.209,0-.835-.268-1.239-.714-1.239C70.731,410.594,70.234,411.577,70.234,412.8Zm4.166-1.069a3.863,3.863,0,0,1-3.644,4.1,2.687,2.687,0,0,1-2.816-2.95,3.868,3.868,0,0,1,3.644-4.082A2.669,2.669,0,0,1,74.4,411.734ZM99.367,412.8c0,.822.268,1.24.726,1.24.612,0,1.1-1,1.1-2.209,0-.835-.268-1.239-.714-1.239C99.865,410.594,99.367,411.577,99.367,412.8Zm4.252-1.116a3.914,3.914,0,0,1-3.692,4.149,2.722,2.722,0,0,1-2.853-2.989,3.919,3.919,0,0,1,3.692-4.136A2.706,2.706,0,0,1,103.619,411.687Zm-18.5-.721c.166-1.145.076-2.183-1.185-2.183a3.383,3.383,0,0,0-2.612,2.088c.153-1.078.064-2.088-1.185-2.088-.943,0-1.962.822-2.663,2.183a7.055,7.055,0,0,0,.089-2.116,15.585,15.585,0,0,1-2.255.216,12.279,12.279,0,0,1-.128,2.2l-.293,2.021c-.115.795-.242,1.711-.369,2.29h2.37c.012-.35.1-.9.165-1.388l.2-1.388c.165-.9.879-1.967,1.427-1.967.318,0,.306.31.217.889l-.229,1.563c-.115.795-.242,1.711-.369,2.29h2.4c.013-.35.089-.9.153-1.388l.2-1.388c.165-.9.879-1.967,1.427-1.967.319,0,.306.3.255.7l-.572,4.042h2.186Zm11.445,2.708-.255,1.59a4.3,4.3,0,0,1-1.988.525c-1.453,0-1.746-.781-1.516-2.438l.369-2.667h-.715l.2-1.726.78-.038.293-1.253,2.2-.835-.28,2.088h1.516c-.051.216-.229,1.4-.281,1.765H95.413l-.331,2.465c-.089.633-.038.862.4.862A2.91,2.91,0,0,0,96.56,413.673Z" transform="translate(-61.57 -406.83)" fill="#fff"></path> <path id="a-copy-7" d="M560.738,449.27a1.919,1.919,0,0,0,1.5-1.656l.023-.208a4.094,4.094,0,0,0-1.336-.077,1.535,1.535,0,0,0-1.057.529.95.95,0,0,0-.2.725A.916.916,0,0,0,560.738,449.27Zm-.689,1.232a1.693,1.693,0,0,1-2.118-1.343,2.339,2.339,0,0,1,.4-1.827,3.146,3.146,0,0,1,2.126-1.059,6.11,6.11,0,0,1,1.938.064l.024-.1a2.148,2.148,0,0,0,.01-.509c-.06-.488-.446-.779-1.4-.662a4.862,4.862,0,0,0-1.726.575l-.461-1.393a6.344,6.344,0,0,1,2.379-.763c1.77-.217,3.014.348,3.174,1.645a4.235,4.235,0,0,1,0,1.043q-.341,2.407-.437,3.622-.014.187,0,.646l-2.2,0a3.064,3.064,0,0,0,.126-.513,4.705,4.705,0,0,0,.054-.536A2.676,2.676,0,0,1,560.05,450.5Z" transform="translate(-534.12 -441.67)" fill="#fff"></path> </g> </svg>